<?xml version="1.0" encoding="UTF-8" standalone="no"?>
<svg
   xmlns:dc="http://purl.org/dc/elements/1.1/"
   xmlns:cc="http://creativecommons.org/ns#"
   xmlns:rdf="http://www.w3.org/1999/02/22-rdf-syntax-ns#"
   xmlns:svg="http://www.w3.org/2000/svg"
   xmlns="http://www.w3.org/2000/svg"
   xmlns:sodipodi="http://sodipodi.sourceforge.net/DTD/sodipodi-0.dtd"
   xmlns:inkscape="http://www.inkscape.org/namespaces/inkscape"
   width="25"
   height="21"
   viewBox="0 0 25 21"
   version="1.1"
   id="svg8"
   inkscape:version="1.0 (4035a4fb49, 2020-05-01)"
   sodipodi:docname="axis_synchronized_motion.svg">
  <defs
     id="defs2">
    <inkscape:path-effect
       effect="bspline"
       id="path-effect90"
       is_visible="true"
       lpeversion="1"
       weight="33.333333"
       steps="2"
       helper_size="0"
       apply_no_weight="true"
       apply_with_weight="true"
       only_selected="false" />
    <inkscape:path-effect
       effect="bspline"
       id="path-effect86"
       is_visible="true"
       lpeversion="1"
       weight="33.333333"
       steps="2"
       helper_size="0"
       apply_no_weight="true"
       apply_with_weight="true"
       only_selected="false" />
  </defs>
  <sodipodi:namedview
     id="base"
     pagecolor="#ffffff"
     bordercolor="#666666"
     borderopacity="1.0"
     inkscape:pageopacity="0.0"
     inkscape:pageshadow="2"
     inkscape:zoom="22.4"
     inkscape:cx="10.086288"
     inkscape:cy="8.5513928"
     inkscape:document-units="mm"
     inkscape:current-layer="layer1"
     inkscape:document-rotation="0"
     showgrid="false"
     inkscape:window-width="1920"
     inkscape:window-height="1001"
     inkscape:window-x="1911"
     inkscape:window-y="-9"
     inkscape:window-maximized="1" />
  <metadata
     id="metadata5">
    <rdf:RDF>
      <cc:Work
         rdf:about="">
        <dc:format>image/svg+xml</dc:format>
        <dc:type
           rdf:resource="http://purl.org/dc/dcmitype/StillImage" />
        <dc:title />
      </cc:Work>
    </rdf:RDF>
  </metadata>
  <g
     transform="scale(10,10)"
     inkscape:label="Capa 1"
     inkscape:groupmode="layer"
     id="layer1">
    <g
       transform="matrix(0.07765184,0,0,0.0867439,38.319684,-34.769401)"
       id="g2941-4-6">
      <path
         sodipodi:nodetypes="ccsccccsscccsc"
         inkscape:connector-curvature="0"
         id="rect2660-7-4-8-3"
         d="m -484.88576,401.54333 c -0.25982,-0.0127 -0.65142,0.0523 -1.25586,0.22266 -3.22369,0.9086 0.31795,1.2194 -2.0039,3.56445 -2.32185,2.34505 -2.79979,-1.06135 -3.59766,2.0918 -0.79788,3.15315 1.25152,0.34457 2.19141,3.46094 0.93992,3.11636 -2.34964,1.81404 0.0762,4.05859 2.42582,2.24455 0.93356,-0.87678 4.19531,-0.10547 3.26173,0.77131 0.45015,2.87344 3.67383,1.96484 3.22369,-0.9086 -0.31794,-1.2194 2.00391,-3.56445 2.32185,-2.34505 2.79783,1.06135 3.5957,-2.0918 0.79788,-3.15315 -1.25152,-0.34457 -2.19141,-3.46093 -0.93992,-3.11636 2.34964,-1.81209 -0.0762,-4.05664 -2.42582,-2.24455 -0.93357,0.87482 -4.19531,0.10351 -2.65016,-0.62669 -1.29014,-2.1324 -2.41602,-2.1875 z"
         style="opacity:1;fill:#ffffff;fill-opacity:1;stroke:none;stroke-width:0.362;stroke-linecap:round;stroke-linejoin:bevel;stroke-miterlimit:4;stroke-dasharray:none;stroke-dashoffset:13;stroke-opacity:1;paint-order:markers stroke fill" />
      <path
         id="path2893-4-2"
         d="m -483.74123,407.16247 a 2.2097087,2.2097087 0 0 0 -2.21093,2.20898 2.2097087,2.2097087 0 0 0 2.21093,2.21094 2.2097087,2.2097087 0 0 0 2.20899,-2.21094 2.2097087,2.2097087 0 0 0 -2.20899,-2.20898 z"
         style="opacity:1;fill:#00c800;fill-opacity:1;stroke:none;stroke-width:0.362;stroke-linecap:round;stroke-linejoin:bevel;stroke-miterlimit:4;stroke-dasharray:none;stroke-dashoffset:13;stroke-opacity:1;paint-order:markers stroke fill"
         inkscape:connector-curvature="0" />
    </g>
    <g
       transform="matrix(0.07765184,0,0,0.0867439,39.351984,-34.136363)"
       id="g2941-42-2">
      <path
         sodipodi:nodetypes="ccsccccsscccsc"
         inkscape:connector-curvature="0"
         id="rect2660-7-4-3-9"
         d="m -484.88576,401.54333 c -0.25982,-0.0127 -0.65142,0.0523 -1.25586,0.22266 -3.22369,0.9086 0.31795,1.2194 -2.0039,3.56445 -2.32185,2.34505 -2.79979,-1.06135 -3.59766,2.0918 -0.79788,3.15315 1.25152,0.34457 2.19141,3.46094 0.93992,3.11636 -2.34964,1.81404 0.0762,4.05859 2.42582,2.24455 0.93356,-0.87678 4.19531,-0.10547 3.26173,0.77131 0.45015,2.87344 3.67383,1.96484 3.22369,-0.9086 -0.31794,-1.2194 2.00391,-3.56445 2.32185,-2.34505 2.79783,1.06135 3.5957,-2.0918 0.79788,-3.15315 -1.25152,-0.34457 -2.19141,-3.46093 -0.93992,-3.11636 2.34964,-1.81209 -0.0762,-4.05664 -2.42582,-2.24455 -0.93357,0.87482 -4.19531,0.10351 -2.65016,-0.62669 -1.29014,-2.1324 -2.41602,-2.1875 z"
         style="opacity:1;fill:#ffffff;fill-opacity:1;stroke:none;stroke-width:0.362;stroke-linecap:round;stroke-linejoin:bevel;stroke-miterlimit:4;stroke-dasharray:none;stroke-dashoffset:13;stroke-opacity:1;paint-order:markers stroke fill" />
      <path
         id="path2893-3-7"
         d="m -483.74123,407.16247 a 2.2097087,2.2097087 0 0 0 -2.21093,2.20898 2.2097087,2.2097087 0 0 0 2.21093,2.21094 2.2097087,2.2097087 0 0 0 2.20899,-2.21094 2.2097087,2.2097087 0 0 0 -2.20899,-2.20898 z"
         style="opacity:1;fill:#00c800;fill-opacity:1;stroke:none;stroke-width:0.362;stroke-linecap:round;stroke-linejoin:bevel;stroke-miterlimit:4;stroke-dasharray:none;stroke-dashoffset:13;stroke-opacity:1;paint-order:markers stroke fill"
         inkscape:connector-curvature="0" />
    </g>
  </g>
</svg>
